<svg width="32" height="32" viewBox="0 0 32 32" fill="none" xmlns="http://www.w3.org/2000/svg">
<path fill-rule="evenodd" clip-rule="evenodd" d="M21.5236 20.7714L29.2906 28.5386C29.4921 28.7473 29.4892 29.0789 29.2841 29.2841C29.0789 29.4892 28.7473 29.4921 28.5386 29.2906L20.7716 21.5234C16.6848 25.2026 10.4106 24.9557 6.62549 20.9668C2.84037 16.9778 2.92269 10.6994 6.81109 6.81105C10.6995 2.9227 16.978 2.84039 20.967 6.62546C24.956 10.4105 25.2029 16.6846 21.5236 20.7714ZM4.98363 14.0242C4.98363 19.0171 9.0313 23.0648 14.0244 23.0648C19.015 23.0589 23.0592 19.0147 23.0651 14.0242C23.0651 9.03116 19.0174 4.98354 14.0244 4.98354C9.0313 4.98354 4.98363 9.03116 4.98363 14.0242Z" fill="black"/>
</svg>
