<svg width="24" height="24" viewBox="0 0 24 24" fill="none" xmlns="http://www.w3.org/2000/svg">
<path fill-rule="evenodd" clip-rule="evenodd" d="M18.0934 5.42956C18.6947 8.04536 17.4096 10.7298 14.995 11.9018C18.63 13.0124 21.1148 16.365 21.1198 20.1659V21.6059C21.1198 21.871 20.9049 22.0859 20.6398 22.0859C20.3747 22.0859 20.1598 21.871 20.1598 21.6059V20.1659C20.1598 15.9243 16.7214 12.4859 12.4798 12.4859C8.2383 12.4859 4.79984 15.9243 4.79984 20.1659V21.6059C4.79984 21.871 4.58494 22.0859 4.31984 22.0859C4.05475 22.0859 3.83984 21.871 3.83984 21.6059V20.1659C3.84491 16.365 6.32965 13.0124 9.96464 11.9018C7.55004 10.7298 6.26495 8.04536 6.86625 5.42956C7.46754 2.81376 9.79583 0.959961 12.4798 0.959961C15.1639 0.959961 17.4921 2.81376 18.0934 5.42956ZM12.4798 1.92586C9.82888 1.92586 7.67984 4.07489 7.67984 6.72586C7.68281 9.37559 9.8301 11.5229 12.4798 11.5259C15.1308 11.5259 17.2798 9.37682 17.2798 6.72586C17.2798 4.07489 15.1308 1.92586 12.4798 1.92586Z" fill="black"/>
</svg>
